<?xml version="1.0" standalone="no"?>
<!DOCTYPE svg PUBLIC "-//W3C//DTD SVG 20010904//EN"
 "http://www.w3.org/TR/2001/REC-SVG-20010904/DTD/svg10.dtd">
<svg version="1.0" xmlns="http://www.w3.org/2000/svg"
 width="260.000000pt" height="260.000000pt" viewBox="0 0 260.000000 260.000000"
 preserveAspectRatio="xMidYMid meet">
<metadata>
Created by potrace 1.11, written by Peter Selinger 2001-2013
</metadata>
<g transform="translate(0.000000,260.000000) scale(0.100000,-0.100000)"
fill="#000000" stroke="none">
<path d="M1290 2586 c0 -8 -7 -17 -15 -20 -9 -3 -23 -22 -31 -41 -14 -33 -13
-51 2 -102 5 -19 2 -23 -14 -23 -26 0 -39 -17 -45 -60 -3 -19 -8 -45 -11 -56
-5 -25 -16 -87 -21 -124 -3 -19 -27 -121 -34 -147 -1 -2 -1 -4 -2 -5 0 -2 -2
-19 -4 -38 -3 -19 -6 -42 -8 -50 -4 -17 -16 -76 -22 -105 -2 -11 -4 -20 -5
-20 -1 0 -4 -11 -5 -25 -4 -23 -14 -81 -20 -105 -3 -17 -16 -79 -20 -100 -2
-11 -4 -20 -5 -20 -1 0 -4 -16 -5 -35 -2 -19 -10 -60 -19 -91 -9 -30 -18 -73
-20 -95 -3 -21 -10 -59 -16 -83 -6 -24 -12 -55 -15 -70 -2 -14 -6 -37 -9 -51
-19 -86 -27 -127 -27 -140 -1 -8 -6 -33 -11 -55 -6 -22 -11 -49 -12 -60 -1
-11 -14 -46 -30 -77 -25 -51 -34 -77 -51 -153 -14 -61 -18 -117 -20 -270 l-1
-170 28 -45 c31 -48 45 -60 70 -57 16 3 55 37 42 37 -4 0 7 14 24 31 18 17 33
35 33 40 3 22 10 89 14 139 4 47 18 153 29 225 2 11 1 25 -3 30 -3 6 -6 33 -7
60 0 28 -6 67 -11 87 -7 23 -7 40 -1 46 6 6 6 12 0 16 -9 6 15 129 31 154 5 7
4 12 -3 12 -7 0 -8 6 -1 18 5 9 9 20 10 25 1 4 1 8 2 10 1 1 2 13 4 27 2 14 6
36 9 50 11 47 15 65 41 195 15 72 29 139 31 150 3 11 7 31 10 45 3 14 7 32 9
40 3 8 7 33 11 55 3 22 10 47 15 56 4 9 6 19 3 22 -3 3 -1 22 5 43 6 22 13 53
15 69 3 17 8 41 11 55 3 14 8 36 11 50 2 14 9 46 15 71 6 26 12 59 13 75 2 16
6 37 10 47 3 9 8 24 11 32 5 18 21 20 22 3 0 -7 4 -29 8 -48 4 -19 9 -42 10
-50 1 -8 7 -26 12 -40 6 -14 9 -33 7 -42 -1 -10 1 -18 7 -18 5 0 9 -11 9 -24
0 -13 7 -42 15 -65 8 -22 12 -41 10 -41 -2 0 5 -33 17 -72 11 -40 21 -80 23
-88 2 -8 4 -15 5 -15 1 0 3 -11 5 -25 6 -31 10 -51 18 -70 7 -20 17 -69 21
-102 1 -14 8 -33 14 -41 7 -7 9 -16 7 -19 -3 -3 1 -25 9 -49 15 -47 25 -93 30
-148 2 -18 7 -36 12 -40 5 -3 9 -13 9 -21 -1 -8 3 -28 8 -45 5 -16 9 -36 10
-42 0 -7 3 -13 6 -13 4 0 6 -12 5 -27 0 -16 3 -30 7 -33 5 -3 10 -27 11 -53 2
-26 7 -47 11 -47 10 0 1 -134 -13 -180 -8 -27 -7 -36 4 -42 14 -8 8 -43 -15
-91 -6 -11 -5 -17 2 -17 6 0 9 -6 6 -12 -2 -7 3 -18 11 -24 15 -11 23 -69 23
-164 -1 -25 5 -61 11 -80 7 -19 12 -51 13 -71 0 -30 9 -47 47 -88 26 -28 56
-51 66 -51 18 0 52 29 52 43 0 4 11 30 25 59 20 41 25 67 25 125 0 40 -4 73
-8 73 -4 0 -8 15 -9 33 0 17 -4 68 -8 112 -4 44 -8 89 -8 100 -1 11 -4 22 -8
25 -4 3 -9 19 -12 35 -13 72 -19 91 -48 153 -16 36 -30 77 -31 91 -1 15 -5 31
-8 36 -4 6 -13 39 -20 75 -7 36 -16 72 -20 80 -9 17 -22 84 -23 115 0 11 -4
22 -8 25 -4 3 -10 19 -13 35 -3 17 -19 84 -37 150 -17 66 -32 136 -33 155 -1
20 -5 40 -8 45 -3 6 -10 28 -14 50 -10 51 -11 54 -14 60 -1 3 -3 13 -5 23 -1
9 -5 24 -8 32 -6 13 -50 195 -64 260 -9 46 -11 55 -13 55 -2 0 -9 30 -14 60
-2 11 -6 27 -9 35 -19 52 -25 80 -17 80 5 0 2 14 -7 31 -8 17 -17 46 -18 65
-2 18 -11 41 -20 50 -14 15 -14 18 -1 33 45 50 41 126 -9 169 -29 25 -55 29
-55 8z m34 -111 c-3 -14 -12 -25 -20 -25 -17 0 -18 19 -3 57 9 24 12 26 20 11
5 -10 7 -29 3 -43z"/>
</g>
</svg>
